<?xml version="1.0" encoding="UTF-8"?>
<svg width="75px" height="24px" viewBox="0 0 75 24" version="1.1" xmlns="http://www.w3.org/2000/svg" xmlns:xlink="http://www.w3.org/1999/xlink">
    <!-- Generator: sketchtool 58 (101010) - https://sketch.com -->
    <title>icons/iview-abc-logo-colour</title>
    <desc>Created with sketchtool.</desc>
    <g id="DLS-iOS-icons" stroke="none" stroke-width="1" fill="none" fill-rule="evenodd">
        <g id="icons/iview-abc-logo-colour" fill-rule="nonzero">
            <path d="M56.3422522,8.05917687 L58.8068031,16.8524779 L58.9996339,16.8524779 L61.4641848,8.05917687 L64.5559775,8.05917687 L67.0443614,16.8524779 L67.2133592,16.8524779 L69.7255762,8.05917687 L72.8422852,8.05917687 L68.5902578,20.7188437 L65.6187135,20.7188437 L63.0339142,12.1671228 L62.8410834,12.1671228 L60.3526994,20.7188437 L57.3811552,20.7188437 L53.2255432,8.05917687 L56.3422522,8.05917687 Z M47.5825341,18.2467095 C48.780685,18.2467095 49.8553375,17.7007167 50.5779113,16.8438113 L53.5072061,16.8438113 C52.5181358,19.1686141 50.2388325,20.7990093 47.5825341,20.7990093 C44.0205809,20.7990093 41.1324522,17.8697145 41.1324522,14.2600953 C41.1324522,10.6493928 44.0216642,7.72118131 47.5825341,7.72118131 C51.1434039,7.72118131 54.0304493,10.6483095 54.0304493,14.2600953 L51.5160657,14.2600953 C51.5160657,12.0566243 49.7535055,10.2713144 47.5825341,10.2713144 C45.4104793,10.2713144 43.6490025,12.0587909 43.6490025,14.2600953 C43.6490025,16.4613997 45.4104793,18.2467095 47.5825341,18.2467095 Z M37.3148358,8.05809355 L40.3091297,8.05809355 L40.3091297,20.7220936 L37.3148358,20.7220936 L37.3148358,8.05809355 Z M27.2941343,8.05809355 L30.3393442,17.2424727 L30.532175,17.2424727 L33.5535519,8.05809355 L36.6225949,8.05809355 L31.9101569,20.7220936 L28.88878,20.7220936 L24.2965904,8.05809355 L27.2941343,8.05809355 Z M20.5309732,8.05809355 L23.5231005,8.05809355 L23.5231005,20.7220936 L20.5309732,20.7220936 L20.5309732,8.05809355 Z M23.718098,4.90238506 C23.718098,5.84920593 22.9532747,6.61727917 22.0042872,6.61619699 C21.0596329,6.61619699 20.292643,5.84920593 20.292643,4.90238506 C20.292643,3.95448086 21.0585496,3.18749094 22.0042872,3.18749094 C22.9532747,3.18749094 23.718098,3.95448086 23.718098,4.90238506 Z" id="Combined-Shape" fill="#31BDBA"></path>
            <path d="M51.5106491,14.2600953 L46.3475503,17.2836389 L46.3475503,11.2387184 L51.5106491,14.2600953 Z M16.3601948,8.48925454 C17.0697688,9.00383111 17.2723494,9.63215618 17.3005157,10.7165586 L17.3005157,18.3312084 C17.2138502,19.5878586 16.415444,20.2714329 15.7015367,20.5855954 C15.3613746,20.6993439 15.2183764,20.7275102 14.846798,20.7275102 C14.2195562,20.7567599 13.4503997,20.5010965 12.9076568,19.8727715 C12.6812431,19.6431078 12.2229992,18.5327058 12.2229992,18.5327058 L9.59811703,11.5442144 C9.44103576,11.1314698 9.10737348,10.9104727 8.77696116,10.8953062 C8.44546552,10.8790564 8.11613652,11.0708039 7.97422172,11.4857151 L7.14331599,13.6826862 L5.74908432,10.0319009 C6.4348253,8.8045004 7.09131667,8.48925454 7.8593899,8.20542494 C8.15513601,8.1122595 8.46821522,8.06242682 8.78346108,8.05159363 C8.85387682,8.04942699 8.92537588,8.05051031 8.99579162,8.05159363 C9.00987477,8.05159363 9.02504123,8.05051031 9.03912438,8.05159363 C9.61003354,8.0721767 10.1722761,8.22167473 10.6251035,8.48925454 C10.8829335,8.6625856 11.5686744,9.11757961 12.0225851,10.2301483 L14.7893821,17.932547 L14.7893821,10.9169726 L14.7471326,11.0350544 L13.7342293,13.8820169 L12.4212466,10.1738157 C12.6184106,9.31799364 13.220736,8.60408637 13.9324767,8.26175753 C14.1978899,8.13934248 14.4784695,8.07434333 14.7612158,8.05701023 C15.328875,8.0212607 15.9019508,8.18484188 16.3601948,8.48925454 Z M9.68261592,17.3053052 L10.4821054,15.1061675 L11.8785037,18.7851191 C11.1949294,20.013603 10.5395213,20.2974326 9.77036476,20.5834288 C9.47678529,20.6755109 9.1647894,20.7242603 8.85171018,20.7383434 C8.19196886,20.767593 7.52572762,20.6267616 7.0024845,20.2974326 C6.74573788,20.1284348 6.06216354,19.6994404 5.60716952,18.5868717 L2.8696222,10.8584734 L2.8696222,17.9043807 L2.93570466,17.7137165 L3.89552537,14.9360864 L5.20525814,18.6442876 C5.03409373,19.4719434 4.40685198,20.1847674 3.69402802,20.5281795 C3.4600311,20.6365114 3.21628431,20.7004273 2.97037087,20.7264269 C2.37671202,20.7903427 1.7743866,20.6310948 1.26955991,20.3277655 C0.555652635,19.786106 0.357405243,19.1870305 0.330322266,18.0755451 L0.330322266,10.4879782 C0.413737835,9.20532846 1.2403103,8.5206708 1.95530089,8.20650826 C2.26729679,8.09275976 2.41246155,8.06459346 2.78079003,8.06459346 C3.40803178,8.06459346 4.20643795,8.29209047 4.71993119,8.94858183 C4.95067816,9.17499552 5.40458886,10.2886475 5.40458886,10.2886475 L8.029471,17.2478893 C8.19196886,17.6400508 8.50288144,17.8567147 8.81812729,17.8902976 C9.16587272,17.9271304 9.51903474,17.7386329 9.68261592,17.3053052 Z" id="Combined-Shape" fill="#FFFFFF"></path>
        </g>
        <g id="labels" transform="translate(-4786.000000, -459.150391)">
            <g id="row-2d" transform="translate(1527.000000, 477.150391)"></g>
            <g id="row-1c" transform="translate(3878.000000, 327.044922)"></g>
        </g>
    </g>
</svg>